<svg width="117" height="25" viewBox="0 0 117 25" fill="none" xmlns="http://www.w3.org/2000/svg">
<path d="M8.4 21.24C7.33333 21.24 6.34 21.0467 5.42 20.66C4.51333 20.2733 3.72 19.7333 3.04 19.04C2.36 18.3467 1.82667 17.5333 1.44 16.6C1.06667 15.6667 0.88 14.6467 0.88 13.54C0.88 12.4333 1.06667 11.4133 1.44 10.48C1.81333 9.53333 2.34 8.72 3.02 8.04C3.7 7.34667 4.49333 6.81333 5.4 6.44C6.32 6.05333 7.32 5.86 8.4 5.86C9.48 5.86 10.4467 6.04 11.3 6.4C12.1667 6.76 12.9 7.24 13.5 7.84C14.1 8.44 14.5267 9.10667 14.78 9.84L12.04 11.16C11.7867 10.44 11.34 9.84667 10.7 9.38C10.0733 8.9 9.30667 8.66 8.4 8.66C7.52 8.66 6.74667 8.86667 6.08 9.28C5.41333 9.69333 4.89333 10.2667 4.52 11C4.16 11.72 3.98 12.5667 3.98 13.54C3.98 14.5133 4.16 15.3667 4.52 16.1C4.89333 16.8333 5.41333 17.4067 6.08 17.82C6.74667 18.2333 7.52 18.44 8.4 18.44C9.30667 18.44 10.0733 18.2067 10.7 17.74C11.34 17.26 11.7867 16.66 12.04 15.94L14.78 17.26C14.5267 17.9933 14.1 18.66 13.5 19.26C12.9 19.86 12.1667 20.34 11.3 20.7C10.4467 21.06 9.48 21.24 8.4 21.24ZM16.3692 21V6.1H19.3692L24.9492 13.5H23.5492L28.9692 6.1H31.9692V21H28.8692V9.52L30.1092 9.8L24.3692 17.2H23.9692L18.4292 9.8L19.4692 9.52V21H16.3692Z" fill="#1B1E4B"/>
<path d="M37.4052 21V6.1H43.1252C44.1518 6.1 45.0585 6.28 45.8452 6.64C46.6452 7 47.2718 7.53333 47.7252 8.24C48.1785 8.94667 48.4052 9.82 48.4052 10.86C48.4052 11.8733 48.1718 12.7333 47.7052 13.44C47.2518 14.1467 46.6252 14.6867 45.8252 15.06C45.0385 15.42 44.1385 15.6 43.1252 15.6H40.5052V21H37.4052ZM40.5052 12.9H43.1452C43.5852 12.9 43.9652 12.8133 44.2852 12.64C44.6052 12.4667 44.8518 12.2267 45.0252 11.92C45.2118 11.6133 45.3052 11.26 45.3052 10.86C45.3052 10.4467 45.2118 10.0867 45.0252 9.78C44.8518 9.47333 44.6052 9.23333 44.2852 9.06C43.9652 8.88667 43.5852 8.8 43.1452 8.8H40.5052V12.9ZM52.548 21.24C51.7613 21.24 51.0813 21.1133 50.508 20.86C49.9346 20.6067 49.4946 20.2467 49.188 19.78C48.8813 19.3 48.728 18.7333 48.728 18.08C48.728 17.4667 48.868 16.9267 49.148 16.46C49.428 15.98 49.8546 15.58 50.428 15.26C51.0146 14.94 51.7413 14.7133 52.608 14.58L55.948 14.04V16.24L53.148 16.74C52.7213 16.82 52.3946 16.96 52.168 17.16C51.9413 17.3467 51.828 17.62 51.828 17.98C51.828 18.3133 51.9546 18.5733 52.208 18.76C52.4613 18.9467 52.7746 19.04 53.148 19.04C53.6413 19.04 54.0746 18.9333 54.448 18.72C54.8213 18.5067 55.108 18.22 55.308 17.86C55.5213 17.4867 55.628 17.08 55.628 16.64V13.8C55.628 13.3867 55.4613 13.04 55.128 12.76C54.808 12.48 54.368 12.34 53.808 12.34C53.2746 12.34 52.8013 12.4867 52.388 12.78C51.988 13.0733 51.6946 13.46 51.508 13.94L49.108 12.8C49.3213 12.1867 49.6613 11.66 50.128 11.22C50.5946 10.78 51.1546 10.44 51.808 10.2C52.4613 9.96 53.1746 9.84 53.948 9.84C54.868 9.84 55.6813 10.0067 56.388 10.34C57.0946 10.6733 57.6413 11.14 58.028 11.74C58.428 12.3267 58.628 13.0133 58.628 13.8V21H55.828V19.24L56.508 19.12C56.188 19.6 55.8346 20 55.448 20.32C55.0613 20.6267 54.628 20.8533 54.148 21C53.668 21.16 53.1346 21.24 52.548 21.24ZM60.4281 21V10.08H63.2281V12.7L63.0281 12.32C63.2681 11.4 63.6615 10.78 64.2081 10.46C64.7681 10.1267 65.4281 9.96 66.1881 9.96H66.8281V12.56H65.8881C65.1548 12.56 64.5615 12.7867 64.1081 13.24C63.6548 13.68 63.4281 14.3067 63.4281 15.12V21H60.4281ZM73.3936 21.12C72.0736 21.12 71.0469 20.7667 70.3136 20.06C69.5936 19.34 69.2336 18.34 69.2336 17.06V12.68H67.3936V10.08H67.4936C68.0536 10.08 68.4803 9.94 68.7736 9.66C69.0803 9.38 69.2336 8.96 69.2336 8.4V7.6H72.2336V10.08H74.7936V12.68H72.2336V16.86C72.2336 17.2333 72.3003 17.5467 72.4336 17.8C72.5669 18.04 72.7736 18.22 73.0536 18.34C73.3336 18.46 73.6803 18.52 74.0936 18.52C74.1869 18.52 74.2936 18.5133 74.4136 18.5C74.5336 18.4867 74.6603 18.4733 74.7936 18.46V21C74.5936 21.0267 74.3669 21.0533 74.1136 21.08C73.8603 21.1067 73.6203 21.12 73.3936 21.12ZM76.1516 21V10.08H78.9516V12.24L78.7916 11.76C79.0449 11.1067 79.4516 10.6267 80.0116 10.32C80.5849 10 81.2516 9.84 82.0116 9.84C82.8382 9.84 83.5582 10.0133 84.1716 10.36C84.7982 10.7067 85.2849 11.1933 85.6316 11.82C85.9782 12.4333 86.1516 13.1533 86.1516 13.98V21H83.1516V14.62C83.1516 14.1933 83.0649 13.8267 82.8916 13.52C82.7316 13.2133 82.4982 12.9733 82.1916 12.8C81.8982 12.6267 81.5516 12.54 81.1516 12.54C80.7649 12.54 80.4182 12.6267 80.1116 12.8C79.8049 12.9733 79.5649 13.2133 79.3916 13.52C79.2316 13.8267 79.1516 14.1933 79.1516 14.62V21H76.1516ZM92.9842 21.24C91.8242 21.24 90.8176 20.9867 89.9642 20.48C89.1109 19.96 88.4509 19.2667 87.9842 18.4C87.5176 17.5333 87.2842 16.5733 87.2842 15.52C87.2842 14.4267 87.5242 13.4533 88.0042 12.6C88.4976 11.7467 89.1576 11.0733 89.9842 10.58C90.8109 10.0867 91.7442 9.84 92.7842 9.84C93.6509 9.84 94.4176 9.98 95.0842 10.26C95.7509 10.5267 96.3109 10.9067 96.7642 11.4C97.2309 11.8933 97.5842 12.4667 97.8242 13.12C98.0642 13.76 98.1842 14.46 98.1842 15.22C98.1842 15.4333 98.1709 15.6467 98.1442 15.86C98.1309 16.06 98.0976 16.2333 98.0442 16.38H89.8642V14.18H96.3442L94.9242 15.22C95.0576 14.6467 95.0509 14.14 94.9042 13.7C94.7576 13.2467 94.4976 12.8933 94.1242 12.64C93.7642 12.3733 93.3176 12.24 92.7842 12.24C92.2642 12.24 91.8176 12.3667 91.4442 12.62C91.0709 12.8733 90.7909 13.2467 90.6042 13.74C90.4176 14.2333 90.3442 14.8333 90.3842 15.54C90.3309 16.1533 90.4042 16.6933 90.6042 17.16C90.8042 17.6267 91.1109 17.9933 91.5242 18.26C91.9376 18.5133 92.4376 18.64 93.0242 18.64C93.5576 18.64 94.0109 18.5333 94.3842 18.32C94.7709 18.1067 95.0709 17.8133 95.2842 17.44L97.6842 18.58C97.4709 19.1133 97.1309 19.58 96.6642 19.98C96.2109 20.38 95.6709 20.6933 95.0442 20.92C94.4176 21.1333 93.7309 21.24 92.9842 21.24ZM99.5508 21V10.08H102.351V12.7L102.151 12.32C102.391 11.4 102.784 10.78 103.331 10.46C103.891 10.1267 104.551 9.96 105.311 9.96H105.951V12.56H105.011C104.277 12.56 103.684 12.7867 103.231 13.24C102.777 13.68 102.551 14.3067 102.551 15.12V21H99.5508ZM111.146 21.24C109.946 21.24 108.899 20.96 108.006 20.4C107.126 19.8267 106.526 19.06 106.206 18.1L108.406 17.06C108.686 17.6467 109.066 18.1067 109.546 18.44C110.026 18.7733 110.559 18.94 111.146 18.94C111.572 18.94 111.899 18.8533 112.126 18.68C112.352 18.5067 112.466 18.2667 112.466 17.96C112.466 17.8 112.426 17.6667 112.346 17.56C112.266 17.44 112.146 17.3333 111.986 17.24C111.826 17.1467 111.626 17.0667 111.386 17L109.526 16.48C108.632 16.2267 107.946 15.82 107.466 15.26C106.986 14.6867 106.746 14.0133 106.746 13.24C106.746 12.56 106.919 11.9667 107.266 11.46C107.612 10.9533 108.099 10.56 108.726 10.28C109.352 9.98667 110.072 9.84 110.886 9.84C111.952 9.84 112.886 10.0933 113.686 10.6C114.499 11.0933 115.072 11.7933 115.406 12.7L113.186 13.74C113.026 13.2867 112.732 12.9267 112.306 12.66C111.892 12.38 111.419 12.24 110.886 12.24C110.499 12.24 110.192 12.32 109.966 12.48C109.752 12.64 109.646 12.86 109.646 13.14C109.646 13.2867 109.686 13.42 109.766 13.54C109.846 13.66 109.972 13.7667 110.146 13.86C110.332 13.9533 110.559 14.04 110.826 14.12L112.566 14.64C113.472 14.9067 114.166 15.3133 114.646 15.86C115.126 16.3933 115.366 17.0533 115.366 17.84C115.366 18.52 115.186 19.1133 114.826 19.62C114.479 20.1267 113.992 20.5267 113.366 20.82C112.739 21.1 111.999 21.24 111.146 21.24Z" fill="#D4006A"/>
</svg>
